0
SECTION
2
HEADER
9
$INSUNITS
70
4
0
ENDSEC
0
SECTION
2
TABLES
0
TABLE
2
LTYPE
0
LTYPE
72
65
70
64
2
CONTINUOUS
3
______
73
0
40
0
0
ENDTAB
0
TABLE
2
LAYER
0
ENDTAB
0
ENDSEC
0
SECTION
2
ENTITIES
0
LINE
8
0
10
88.75
20
-2.525
11
101.75
21
-2.525
0
LINE
8
0
10
88.75
20
-16.525
11
101.75
21
-16.525
0
LINE
8
0
10
88.25
20
-3.025
11
88.25
21
-16.025
0
LINE
8
0
10
102.25
20
-3.025
11
102.25
21
-16.025
0
ARC
8
0
10
88.75
20
-3.025
40
0.5
50
90
51
180
0
ARC
8
0
10
101.75
20
-3.025
40
0.5
50
0
51
90
0
ARC
8
0
10
88.75
20
-16.025
40
0.5
50
180
51
270
0
ARC
8
0
10
101.75
20
-16.025
40
0.5
50
270
51
0
0
LINE
8
0
10
126.85
20
-2.525
11
139.85
21
-2.525
0
LINE
8
0
10
126.85
20
-16.525
11
139.85
21
-16.525
0
LINE
8
0
10
126.35
20
-3.025
11
126.35
21
-16.025
0
LINE
8
0
10
140.35
20
-3.025
11
140.35
21
-16.025
0
ARC
8
0
10
126.85
20
-3.025
40
0.5
50
90
51
180
0
ARC
8
0
10
139.85
20
-3.025
40
0.5
50
0
51
90
0
ARC
8
0
10
126.85
20
-16.025
40
0.5
50
180
51
270
0
ARC
8
0
10
139.85
20
-16.025
40
0.5
50
270
51
0
0
LINE
8
0
10
145.9
20
-2.525
11
158.9
21
-2.525
0
LINE
8
0
10
145.9
20
-16.525
11
158.9
21
-16.525
0
LINE
8
0
10
145.4
20
-3.025
11
145.4
21
-16.025
0
LINE
8
0
10
159.4
20
-3.025
11
159.4
21
-16.025
0
ARC
8
0
10
145.9
20
-3.025
40
0.5
50
90
51
180
0
ARC
8
0
10
158.9
20
-3.025
40
0.5
50
0
51
90
0
ARC
8
0
10
145.9
20
-16.025
40
0.5
50
180
51
270
0
ARC
8
0
10
158.9
20
-16.025
40
0.5
50
270
51
0
0
LINE
8
0
10
164.95
20
-2.525
11
177.95
21
-2.525
0
LINE
8
0
10
164.95
20
-16.525
11
177.95
21
-16.525
0
LINE
8
0
10
164.45
20
-3.025
11
164.45
21
-16.025
0
LINE
8
0
10
178.45
20
-3.025
11
178.45
21
-16.025
0
ARC
8
0
10
164.95
20
-3.025
40
0.5
50
90
51
180
0
ARC
8
0
10
177.95
20
-3.025
40
0.5
50
0
51
90
0
ARC
8
0
10
164.95
20
-16.025
40
0.5
50
180
51
270
0
ARC
8
0
10
177.95
20
-16.025
40
0.5
50
270
51
0
0
LINE
8
0
10
184
20
-2.525
11
197
21
-2.525
0
LINE
8
0
10
184
20
-16.525
11
197
21
-16.525
0
LINE
8
0
10
183.5
20
-3.025
11
183.5
21
-16.025
0
LINE
8
0
10
197.5
20
-3.025
11
197.5
21
-16.025
0
ARC
8
0
10
184
20
-3.025
40
0.5
50
90
51
180
0
ARC
8
0
10
197
20
-3.025
40
0.5
50
0
51
90
0
ARC
8
0
10
184
20
-16.025
40
0.5
50
180
51
270
0
ARC
8
0
10
197
20
-16.025
40
0.5
50
270
51
0
0
LINE
8
0
10
212.575
20
-2.525
11
225.575
21
-2.525
0
LINE
8
0
10
212.575
20
-16.525
11
225.575
21
-16.525
0
LINE
8
0
10
212.075
20
-3.025
11
212.075
21
-16.025
0
LINE
8
0
10
226.075
20
-3.025
11
226.075
21
-16.025
0
ARC
8
0
10
212.575
20
-3.025
40
0.5
50
90
51
180
0
ARC
8
0
10
225.575
20
-3.025
40
0.5
50
0
51
90
0
ARC
8
0
10
212.575
20
-16.025
40
0.5
50
180
51
270
0
ARC
8
0
10
225.575
20
-16.025
40
0.5
50
270
51
0
0
LINE
8
0
10
231.625
20
-2.525
11
244.625
21
-2.525
0
LINE
8
0
10
231.625
20
-16.525
11
244.625
21
-16.525
0
LINE
8
0
10
231.125
20
-3.025
11
231.125
21
-16.025
0
LINE
8
0
10
245.125
20
-3.025
11
245.125
21
-16.025
0
ARC
8
0
10
231.625
20
-3.025
40
0.5
50
90
51
180
0
ARC
8
0
10
244.625
20
-3.025
40
0.5
50
0
51
90
0
ARC
8
0
10
231.625
20
-16.025
40
0.5
50
180
51
270
0
ARC
8
0
10
244.625
20
-16.025
40
0.5
50
270
51
0
0
LINE
8
0
10
250.675
20
-2.525
11
263.675
21
-2.525
0
LINE
8
0
10
250.675
20
-16.525
11
263.675
21
-16.525
0
LINE
8
0
10
250.175
20
-3.025
11
250.175
21
-16.025
0
LINE
8
0
10
264.175
20
-3.025
11
264.175
21
-16.025
0
ARC
8
0
10
250.675
20
-3.025
40
0.5
50
90
51
180
0
ARC
8
0
10
263.675
20
-3.025
40
0.5
50
0
51
90
0
ARC
8
0
10
250.675
20
-16.025
40
0.5
50
180
51
270
0
ARC
8
0
10
263.675
20
-16.025
40
0.5
50
270
51
0
0
LINE
8
0
10
269.725
20
-2.525
11
282.725
21
-2.525
0
LINE
8
0
10
269.725
20
-16.525
11
282.725
21
-16.525
0
LINE
8
0
10
269.225
20
-3.025
11
269.225
21
-16.025
0
LINE
8
0
10
283.225
20
-3.025
11
283.225
21
-16.025
0
ARC
8
0
10
269.725
20
-3.025
40
0.5
50
90
51
180
0
ARC
8
0
10
282.725
20
-3.025
40
0.5
50
0
51
90
0
ARC
8
0
10
269.725
20
-16.025
40
0.5
50
180
51
270
0
ARC
8
0
10
282.725
20
-16.025
40
0.5
50
270
51
0
0
LINE
8
0
10
298.3
20
-2.525
11
311.3
21
-2.525
0
LINE
8
0
10
298.3
20
-16.525
11
311.3
21
-16.525
0
LINE
8
0
10
297.8
20
-3.025
11
297.8
21
-16.025
0
LINE
8
0
10
311.8
20
-3.025
11
311.8
21
-16.025
0
ARC
8
0
10
298.3
20
-3.025
40
0.5
50
90
51
180
0
ARC
8
0
10
311.3
20
-3.025
40
0.5
50
0
51
90
0
ARC
8
0
10
298.3
20
-16.025
40
0.5
50
180
51
270
0
ARC
8
0
10
311.3
20
-16.025
40
0.5
50
270
51
0
0
LINE
8
0
10
317.35
20
-2.525
11
330.35
21
-2.525
0
LINE
8
0
10
317.35
20
-16.525
11
330.35
21
-16.525
0
LINE
8
0
10
316.85
20
-3.025
11
316.85
21
-16.025
0
LINE
8
0
10
330.85
20
-3.025
11
330.85
21
-16.025
0
ARC
8
0
10
317.35
20
-3.025
40
0.5
50
90
51
180
0
ARC
8
0
10
330.35
20
-3.025
40
0.5
50
0
51
90
0
ARC
8
0
10
317.35
20
-16.025
40
0.5
50
180
51
270
0
ARC
8
0
10
330.35
20
-16.025
40
0.5
50
270
51
0
0
LINE
8
0
10
336.4
20
-2.525
11
349.4
21
-2.525
0
LINE
8
0
10
336.4
20
-16.525
11
349.4
21
-16.525
0
LINE
8
0
10
335.9
20
-3.025
11
335.9
21
-16.025
0
LINE
8
0
10
349.9
20
-3.025
11
349.9
21
-16.025
0
ARC
8
0
10
336.4
20
-3.025
40
0.5
50
90
51
180
0
ARC
8
0
10
349.4
20
-3.025
40
0.5
50
0
51
90
0
ARC
8
0
10
336.4
20
-16.025
40
0.5
50
180
51
270
0
ARC
8
0
10
349.4
20
-16.025
40
0.5
50
270
51
0
0
LINE
8
0
10
355.45
20
-2.525
11
368.45
21
-2.525
0
LINE
8
0
10
355.45
20
-16.525
11
368.45
21
-16.525
0
LINE
8
0
10
354.95
20
-3.025
11
354.95
21
-16.025
0
LINE
8
0
10
368.95
20
-3.025
11
368.95
21
-16.025
0
ARC
8
0
10
355.45
20
-3.025
40
0.5
50
90
51
180
0
ARC
8
0
10
368.45
20
-3.025
40
0.5
50
0
51
90
0
ARC
8
0
10
355.45
20
-16.025
40
0.5
50
180
51
270
0
ARC
8
0
10
368.45
20
-16.025
40
0.5
50
270
51
0
0
LINE
8
0
10
379.2625
20
-2.525
11
392.2625
21
-2.525
0
LINE
8
0
10
379.2625
20
-16.525
11
392.2625
21
-16.525
0
LINE
8
0
10
378.7625
20
-3.025
11
378.7625
21
-16.025
0
LINE
8
0
10
392.7625
20
-3.025
11
392.7625
21
-16.025
0
ARC
8
0
10
379.2625
20
-3.025
40
0.5
50
90
51
180
0
ARC
8
0
10
392.2625
20
-3.025
40
0.5
50
0
51
90
0
ARC
8
0
10
379.2625
20
-16.025
40
0.5
50
180
51
270
0
ARC
8
0
10
392.2625
20
-16.025
40
0.5
50
270
51
0
0
LINE
8
0
10
398.3125
20
-2.525
11
411.3125
21
-2.525
0
LINE
8
0
10
398.3125
20
-16.525
11
411.3125
21
-16.525
0
LINE
8
0
10
397.8125
20
-3.025
11
397.8125
21
-16.025
0
LINE
8
0
10
411.8125
20
-3.025
11
411.8125
21
-16.025
0
ARC
8
0
10
398.3125
20
-3.025
40
0.5
50
90
51
180
0
ARC
8
0
10
411.3125
20
-3.025
40
0.5
50
0
51
90
0
ARC
8
0
10
398.3125
20
-16.025
40
0.5
50
180
51
270
0
ARC
8
0
10
411.3125
20
-16.025
40
0.5
50
270
51
0
0
LINE
8
0
10
417.3625
20
-2.525
11
430.3625
21
-2.525
0
LINE
8
0
10
417.3625
20
-16.525
11
430.3625
21
-16.525
0
LINE
8
0
10
416.8625
20
-3.025
11
416.8625
21
-16.025
0
LINE
8
0
10
430.8625
20
-3.025
11
430.8625
21
-16.025
0
ARC
8
0
10
417.3625
20
-3.025
40
0.5
50
90
51
180
0
ARC
8
0
10
430.3625
20
-3.025
40
0.5
50
0
51
90
0
ARC
8
0
10
417.3625
20
-16.025
40
0.5
50
180
51
270
0
ARC
8
0
10
430.3625
20
-16.025
40
0.5
50
270
51
0
0
LINE
8
0
10
3.025
20
-31.1
11
16.025
21
-31.1
0
LINE
8
0
10
3.025
20
-45.1
11
16.025
21
-45.1
0
LINE
8
0
10
2.525
20
-31.6
11
2.525
21
-44.6
0
LINE
8
0
10
16.525
20
-31.6
11
16.525
21
-44.6
0
ARC
8
0
10
3.025
20
-31.6
40
0.5
50
90
51
180
0
ARC
8
0
10
16.025
20
-31.6
40
0.5
50
0
51
90
0
ARC
8
0
10
3.025
20
-44.6
40
0.5
50
180
51
270
0
ARC
8
0
10
16.025
20
-44.6
40
0.5
50
270
51
0
0
LINE
8
0
10
22.075
20
-31.1
11
35.075
21
-31.1
0
LINE
8
0
10
22.075
20
-45.1
11
35.075
21
-45.1
0
LINE
8
0
10
21.575
20
-31.6
11
21.575
21
-44.6
0
LINE
8
0
10
35.575
20
-31.6
11
35.575
21
-44.6
0
ARC
8
0
10
22.075
20
-31.6
40
0.5
50
90
51
180
0
ARC
8
0
10
35.075
20
-31.6
40
0.5
50
0
51
90
0
ARC
8
0
10
22.075
20
-44.6
40
0.5
50
180
51
270
0
ARC
8
0
10
35.075
20
-44.6
40
0.5
50
270
51
0
0
LINE
8
0
10
41.125
20
-31.1
11
54.125
21
-31.1
0
LINE
8
0
10
41.125
20
-45.1
11
54.125
21
-45.1
0
LINE
8
0
10
40.625
20
-31.6
11
40.625
21
-44.6
0
LINE
8
0
10
54.625
20
-31.6
11
54.625
21
-44.6
0
ARC
8
0
10
41.125
20
-31.6
40
0.5
50
90
51
180
0
ARC
8
0
10
54.125
20
-31.6
40
0.5
50
0
51
90
0
ARC
8
0
10
41.125
20
-44.6
40
0.5
50
180
51
270
0
ARC
8
0
10
54.125
20
-44.6
40
0.5
50
270
51
0
0
LINE
8
0
10
60.175
20
-31.1
11
73.175
21
-31.1
0
LINE
8
0
10
60.175
20
-45.1
11
73.175
21
-45.1
0
LINE
8
0
10
59.675
20
-31.6
11
59.675
21
-44.6
0
LINE
8
0
10
73.675
20
-31.6
11
73.675
21
-44.6
0
ARC
8
0
10
60.175
20
-31.6
40
0.5
50
90
51
180
0
ARC
8
0
10
73.175
20
-31.6
40
0.5
50
0
51
90
0
ARC
8
0
10
60.175
20
-44.6
40
0.5
50
180
51
270
0
ARC
8
0
10
73.175
20
-44.6
40
0.5
50
270
51
0
0
LINE
8
0
10
88.75
20
-31.1
11
101.75
21
-31.1
0
LINE
8
0
10
88.75
20
-45.1
11
101.75
21
-45.1
0
LINE
8
0
10
88.25
20
-31.6
11
88.25
21
-44.6
0
LINE
8
0
10
102.25
20
-31.6
11
102.25
21
-44.6
0
ARC
8
0
10
88.75
20
-31.6
40
0.5
50
90
51
180
0
ARC
8
0
10
101.75
20
-31.6
40
0.5
50
0
51
90
0
ARC
8
0
10
88.75
20
-44.6
40
0.5
50
180
51
270
0
ARC
8
0
10
101.75
20
-44.6
40
0.5
50
270
51
0
0
LINE
8
0
10
107.8
20
-31.1
11
120.8
21
-31.1
0
LINE
8
0
10
107.8
20
-45.1
11
120.8
21
-45.1
0
LINE
8
0
10
107.3
20
-31.6
11
107.3
21
-44.6
0
LINE
8
0
10
121.3
20
-31.6
11
121.3
21
-44.6
0
ARC
8
0
10
107.8
20
-31.6
40
0.5
50
90
51
180
0
ARC
8
0
10
120.8
20
-31.6
40
0.5
50
0
51
90
0
ARC
8
0
10
107.8
20
-44.6
40
0.5
50
180
51
270
0
ARC
8
0
10
120.8
20
-44.6
40
0.5
50
270
51
0
0
LINE
8
0
10
126.85
20
-31.1
11
139.85
21
-31.1
0
LINE
8
0
10
126.85
20
-45.1
11
139.85
21
-45.1
0
LINE
8
0
10
126.35
20
-31.6
11
126.35
21
-44.6
0
LINE
8
0
10
140.35
20
-31.6
11
140.35
21
-44.6
0
ARC
8
0
10
126.85
20
-31.6
40
0.5
50
90
51
180
0
ARC
8
0
10
139.85
20
-31.6
40
0.5
50
0
51
90
0
ARC
8
0
10
126.85
20
-44.6
40
0.5
50
180
51
270
0
ARC
8
0
10
139.85
20
-44.6
40
0.5
50
270
51
0
0
LINE
8
0
10
145.9
20
-31.1
11
158.9
21
-31.1
0
LINE
8
0
10
145.9
20
-45.1
11
158.9
21
-45.1
0
LINE
8
0
10
145.4
20
-31.6
11
145.4
21
-44.6
0
LINE
8
0
10
159.4
20
-31.6
11
159.4
21
-44.6
0
ARC
8
0
10
145.9
20
-31.6
40
0.5
50
90
51
180
0
ARC
8
0
10
158.9
20
-31.6
40
0.5
50
0
51
90
0
ARC
8
0
10
145.9
20
-44.6
40
0.5
50
180
51
270
0
ARC
8
0
10
158.9
20
-44.6
40
0.5
50
270
51
0
0
LINE
8
0
10
164.95
20
-31.1
11
177.95
21
-31.1
0
LINE
8
0
10
164.95
20
-45.1
11
177.95
21
-45.1
0
LINE
8
0
10
164.45
20
-31.6
11
164.45
21
-44.6
0
LINE
8
0
10
178.45
20
-31.6
11
178.45
21
-44.6
0
ARC
8
0
10
164.95
20
-31.6
40
0.5
50
90
51
180
0
ARC
8
0
10
177.95
20
-31.6
40
0.5
50
0
51
90
0
ARC
8
0
10
164.95
20
-44.6
40
0.5
50
180
51
270
0
ARC
8
0
10
177.95
20
-44.6
40
0.5
50
270
51
0
0
LINE
8
0
10
184
20
-31.1
11
197
21
-31.1
0
LINE
8
0
10
184
20
-45.1
11
197
21
-45.1
0
LINE
8
0
10
183.5
20
-31.6
11
183.5
21
-44.6
0
LINE
8
0
10
197.5
20
-31.6
11
197.5
21
-44.6
0
ARC
8
0
10
184
20
-31.6
40
0.5
50
90
51
180
0
ARC
8
0
10
197
20
-31.6
40
0.5
50
0
51
90
0
ARC
8
0
10
184
20
-44.6
40
0.5
50
180
51
270
0
ARC
8
0
10
197
20
-44.6
40
0.5
50
270
51
0
0
LINE
8
0
10
203.05
20
-31.1
11
216.05
21
-31.1
0
LINE
8
0
10
203.05
20
-45.1
11
216.05
21
-45.1
0
LINE
8
0
10
202.55
20
-31.6
11
202.55
21
-44.6
0
LINE
8
0
10
216.55
20
-31.6
11
216.55
21
-44.6
0
ARC
8
0
10
203.05
20
-31.6
40
0.5
50
90
51
180
0
ARC
8
0
10
216.05
20
-31.6
40
0.5
50
0
51
90
0
ARC
8
0
10
203.05
20
-44.6
40
0.5
50
180
51
270
0
ARC
8
0
10
216.05
20
-44.6
40
0.5
50
270
51
0
0
LINE
8
0
10
222.1
20
-31.1
11
235.1
21
-31.1
0
LINE
8
0
10
222.1
20
-45.1
11
235.1
21
-45.1
0
LINE
8
0
10
221.6
20
-31.6
11
221.6
21
-44.6
0
LINE
8
0
10
235.6
20
-31.6
11
235.6
21
-44.6
0
ARC
8
0
10
222.1
20
-31.6
40
0.5
50
90
51
180
0
ARC
8
0
10
235.1
20
-31.6
40
0.5
50
0
51
90
0
ARC
8
0
10
222.1
20
-44.6
40
0.5
50
180
51
270
0
ARC
8
0
10
235.1
20
-44.6
40
0.5
50
270
51
0
0
LINE
8
0
10
241.15
20
-31.1
11
254.15
21
-31.1
0
LINE
8
0
10
241.15
20
-45.1
11
254.15
21
-45.1
0
LINE
8
0
10
240.65
20
-31.6
11
240.65
21
-44.6
0
LINE
8
0
10
254.65
20
-31.6
11
254.65
21
-44.6
0
ARC
8
0
10
241.15
20
-31.6
40
0.5
50
90
51
180
0
ARC
8
0
10
254.15
20
-31.6
40
0.5
50
0
51
90
0
ARC
8
0
10
241.15
20
-44.6
40
0.5
50
180
51
270
0
ARC
8
0
10
254.15
20
-44.6
40
0.5
50
270
51
0
0
LINE
8
0
10
260.2
20
-31.1
11
273.2
21
-31.1
0
LINE
8
0
10
260.2
20
-45.1
11
273.2
21
-45.1
0
LINE
8
0
10
259.7
20
-31.6
11
259.7
21
-44.6
0
LINE
8
0
10
273.7
20
-31.6
11
273.7
21
-44.6
0
ARC
8
0
10
260.2
20
-31.6
40
0.5
50
90
51
180
0
ARC
8
0
10
273.2
20
-31.6
40
0.5
50
0
51
90
0
ARC
8
0
10
260.2
20
-44.6
40
0.5
50
180
51
270
0
ARC
8
0
10
273.2
20
-44.6
40
0.5
50
270
51
0
0
LINE
8
0
10
279.25
20
-31.1
11
292.25
21
-31.1
0
LINE
8
0
10
279.25
20
-45.1
11
292.25
21
-45.1
0
LINE
8
0
10
278.75
20
-31.6
11
278.75
21
-44.6
0
LINE
8
0
10
292.75
20
-31.6
11
292.75
21
-44.6
0
ARC
8
0
10
279.25
20
-31.6
40
0.5
50
90
51
180
0
ARC
8
0
10
292.25
20
-31.6
40
0.5
50
0
51
90
0
ARC
8
0
10
279.25
20
-44.6
40
0.5
50
180
51
270
0
ARC
8
0
10
292.25
20
-44.6
40
0.5
50
270
51
0
0
LINE
8
0
10
298.3
20
-31.1
11
311.3
21
-31.1
0
LINE
8
0
10
298.3
20
-45.1
11
311.3
21
-45.1
0
LINE
8
0
10
297.8
20
-31.6
11
297.8
21
-44.6
0
LINE
8
0
10
311.8
20
-31.6
11
311.8
21
-44.6
0
ARC
8
0
10
298.3
20
-31.6
40
0.5
50
90
51
180
0
ARC
8
0
10
311.3
20
-31.6
40
0.5
50
0
51
90
0
ARC
8
0
10
298.3
20
-44.6
40
0.5
50
180
51
270
0
ARC
8
0
10
311.3
20
-44.6
40
0.5
50
270
51
0
0
LINE
8
0
10
317.35
20
-31.1
11
330.35
21
-31.1
0
LINE
8
0
10
317.35
20
-45.1
11
330.35
21
-45.1
0
LINE
8
0
10
316.85
20
-31.6
11
316.85
21
-44.6
0
LINE
8
0
10
330.85
20
-31.6
11
330.85
21
-44.6
0
ARC
8
0
10
317.35
20
-31.6
40
0.5
50
90
51
180
0
ARC
8
0
10
330.35
20
-31.6
40
0.5
50
0
51
90
0
ARC
8
0
10
317.35
20
-44.6
40
0.5
50
180
51
270
0
ARC
8
0
10
330.35
20
-44.6
40
0.5
50
270
51
0
0
LINE
8
0
10
345.925
20
-31.1
11
358.925
21
-31.1
0
LINE
8
0
10
345.925
20
-45.1
11
358.925
21
-45.1
0
LINE
8
0
10
345.425
20
-31.6
11
345.425
21
-44.6
0
LINE
8
0
10
359.425
20
-31.6
11
359.425
21
-44.6
0
ARC
8
0
10
345.925
20
-31.6
40
0.5
50
90
51
180
0
ARC
8
0
10
358.925
20
-31.6
40
0.5
50
0
51
90
0
ARC
8
0
10
345.925
20
-44.6
40
0.5
50
180
51
270
0
ARC
8
0
10
358.925
20
-44.6
40
0.5
50
270
51
0
0
LINE
8
0
10
337.487
20
-32.1
11
343.487
21
-32.1
0
LINE
8
0
10
337.487
20
-47.1
11
343.487
21
-47.1
0
LINE
8
0
10
336.987
20
-32.6
11
336.987
21
-46.6
0
LINE
8
0
10
343.987
20
-32.6
11
343.987
21
-46.6
0
ARC
8
0
10
337.487
20
-32.6
40
0.5
50
90
51
180
0
ARC
8
0
10
343.487
20
-32.6
40
0.5
50
0
51
90
0
ARC
8
0
10
337.487
20
-46.6
40
0.5
50
180
51
270
0
ARC
8
0
10
343.487
20
-46.6
40
0.5
50
270
51
0
0
LINE
8
0
10
361.363
20
-32.1
11
367.363
21
-32.1
0
LINE
8
0
10
361.363
20
-47.1
11
367.363
21
-47.1
0
LINE
8
0
10
360.863
20
-32.6
11
360.863
21
-46.6
0
LINE
8
0
10
367.863
20
-32.6
11
367.863
21
-46.6
0
ARC
8
0
10
361.363
20
-32.6
40
0.5
50
90
51
180
0
ARC
8
0
10
367.363
20
-32.6
40
0.5
50
0
51
90
0
ARC
8
0
10
361.363
20
-46.6
40
0.5
50
180
51
270
0
ARC
8
0
10
367.363
20
-46.6
40
0.5
50
270
51
0
0
LINE
8
0
10
379.2625
20
-31.1
11
392.2625
21
-31.1
0
LINE
8
0
10
379.2625
20
-45.1
11
392.2625
21
-45.1
0
LINE
8
0
10
378.7625
20
-31.6
11
378.7625
21
-44.6
0
LINE
8
0
10
392.7625
20
-31.6
11
392.7625
21
-44.6
0
ARC
8
0
10
379.2625
20
-31.6
40
0.5
50
90
51
180
0
ARC
8
0
10
392.2625
20
-31.6
40
0.5
50
0
51
90
0
ARC
8
0
10
379.2625
20
-44.6
40
0.5
50
180
51
270
0
ARC
8
0
10
392.2625
20
-44.6
40
0.5
50
270
51
0
0
LINE
8
0
10
398.3125
20
-31.1
11
411.3125
21
-31.1
0
LINE
8
0
10
398.3125
20
-45.1
11
411.3125
21
-45.1
0
LINE
8
0
10
397.8125
20
-31.6
11
397.8125
21
-44.6
0
LINE
8
0
10
411.8125
20
-31.6
11
411.8125
21
-44.6
0
ARC
8
0
10
398.3125
20
-31.6
40
0.5
50
90
51
180
0
ARC
8
0
10
411.3125
20
-31.6
40
0.5
50
0
51
90
0
ARC
8
0
10
398.3125
20
-44.6
40
0.5
50
180
51
270
0
ARC
8
0
10
411.3125
20
-44.6
40
0.5
50
270
51
0
0
LINE
8
0
10
417.3625
20
-31.1
11
430.3625
21
-31.1
0
LINE
8
0
10
417.3625
20
-45.1
11
430.3625
21
-45.1
0
LINE
8
0
10
416.8625
20
-31.6
11
416.8625
21
-44.6
0
LINE
8
0
10
430.8625
20
-31.6
11
430.8625
21
-44.6
0
ARC
8
0
10
417.3625
20
-31.6
40
0.5
50
90
51
180
0
ARC
8
0
10
430.3625
20
-31.6
40
0.5
50
0
51
90
0
ARC
8
0
10
417.3625
20
-44.6
40
0.5
50
180
51
270
0
ARC
8
0
10
430.3625
20
-44.6
40
0.5
50
270
51
0
0
LINE
8
0
10
441.175
20
-31.1
11
454.175
21
-31.1
0
LINE
8
0
10
441.175
20
-45.1
11
454.175
21
-45.1
0
LINE
8
0
10
440.675
20
-31.6
11
440.675
21
-44.6
0
LINE
8
0
10
454.675
20
-31.6
11
454.675
21
-44.6
0
ARC
8
0
10
441.175
20
-31.6
40
0.5
50
90
51
180
0
ARC
8
0
10
454.175
20
-31.6
40
0.5
50
0
51
90
0
ARC
8
0
10
441.175
20
-44.6
40
0.5
50
180
51
270
0
ARC
8
0
10
454.175
20
-44.6
40
0.5
50
270
51
0
0
LINE
8
0
10
460.225
20
-31.1
11
473.225
21
-31.1
0
LINE
8
0
10
460.225
20
-45.1
11
473.225
21
-45.1
0
LINE
8
0
10
459.725
20
-31.6
11
459.725
21
-44.6
0
LINE
8
0
10
473.725
20
-31.6
11
473.725
21
-44.6
0
ARC
8
0
10
460.225
20
-31.6
40
0.5
50
90
51
180
0
ARC
8
0
10
473.225
20
-31.6
40
0.5
50
0
51
90
0
ARC
8
0
10
460.225
20
-44.6
40
0.5
50
180
51
270
0
ARC
8
0
10
473.225
20
-44.6
40
0.5
50
270
51
0
0
LINE
8
0
10
479.275
20
-31.1
11
492.275
21
-31.1
0
LINE
8
0
10
479.275
20
-45.1
11
492.275
21
-45.1
0
LINE
8
0
10
478.775
20
-31.6
11
478.775
21
-44.6
0
LINE
8
0
10
492.775
20
-31.6
11
492.775
21
-44.6
0
ARC
8
0
10
479.275
20
-31.6
40
0.5
50
90
51
180
0
ARC
8
0
10
492.275
20
-31.6
40
0.5
50
0
51
90
0
ARC
8
0
10
479.275
20
-44.6
40
0.5
50
180
51
270
0
ARC
8
0
10
492.275
20
-44.6
40
0.5
50
270
51
0
0
LINE
8
0
10
498.325
20
-31.1
11
511.325
21
-31.1
0
LINE
8
0
10
498.325
20
-45.1
11
511.325
21
-45.1
0
LINE
8
0
10
497.825
20
-31.6
11
497.825
21
-44.6
0
LINE
8
0
10
511.825
20
-31.6
11
511.825
21
-44.6
0
ARC
8
0
10
498.325
20
-31.6
40
0.5
50
90
51
180
0
ARC
8
0
10
511.325
20
-31.6
40
0.5
50
0
51
90
0
ARC
8
0
10
498.325
20
-44.6
40
0.5
50
180
51
270
0
ARC
8
0
10
511.325
20
-44.6
40
0.5
50
270
51
0
0
LINE
8
0
10
3.025
20
-50.15
11
16.025
21
-50.15
0
LINE
8
0
10
3.025
20
-64.15
11
16.025
21
-64.15
0
LINE
8
0
10
2.525
20
-50.65
11
2.525
21
-63.65
0
LINE
8
0
10
16.525
20
-50.65
11
16.525
21
-63.65
0
ARC
8
0
10
3.025
20
-50.65
40
0.5
50
90
51
180
0
ARC
8
0
10
16.025
20
-50.65
40
0.5
50
0
51
90
0
ARC
8
0
10
3.025
20
-63.65
40
0.5
50
180
51
270
0
ARC
8
0
10
16.025
20
-63.65
40
0.5
50
270
51
0
0
LINE
8
0
10
22.075
20
-50.15
11
35.075
21
-50.15
0
LINE
8
0
10
22.075
20
-64.15
11
35.075
21
-64.15
0
LINE
8
0
10
21.575
20
-50.65
11
21.575
21
-63.65
0
LINE
8
0
10
35.575
20
-50.65
11
35.575
21
-63.65
0
ARC
8
0
10
22.075
20
-50.65
40
0.5
50
90
51
180
0
ARC
8
0
10
35.075
20
-50.65
40
0.5
50
0
51
90
0
ARC
8
0
10
22.075
20
-63.65
40
0.5
50
180
51
270
0
ARC
8
0
10
35.075
20
-63.65
40
0.5
50
270
51
0
0
LINE
8
0
10
41.125
20
-50.15
11
54.125
21
-50.15
0
LINE
8
0
10
41.125
20
-64.15
11
54.125
21
-64.15
0
LINE
8
0
10
40.625
20
-50.65
11
40.625
21
-63.65
0
LINE
8
0
10
54.625
20
-50.65
11
54.625
21
-63.65
0
ARC
8
0
10
41.125
20
-50.65
40
0.5
50
90
51
180
0
ARC
8
0
10
54.125
20
-50.65
40
0.5
50
0
51
90
0
ARC
8
0
10
41.125
20
-63.65
40
0.5
50
180
51
270
0
ARC
8
0
10
54.125
20
-63.65
40
0.5
50
270
51
0
0
LINE
8
0
10
60.175
20
-50.15
11
73.175
21
-50.15
0
LINE
8
0
10
60.175
20
-64.15
11
73.175
21
-64.15
0
LINE
8
0
10
59.675
20
-50.65
11
59.675
21
-63.65
0
LINE
8
0
10
73.675
20
-50.65
11
73.675
21
-63.65
0
ARC
8
0
10
60.175
20
-50.65
40
0.5
50
90
51
180
0
ARC
8
0
10
73.175
20
-50.65
40
0.5
50
0
51
90
0
ARC
8
0
10
60.175
20
-63.65
40
0.5
50
180
51
270
0
ARC
8
0
10
73.175
20
-63.65
40
0.5
50
270
51
0
0
LINE
8
0
10
93.5125
20
-50.15
11
106.5125
21
-50.15
0
LINE
8
0
10
93.5125
20
-64.15
11
106.5125
21
-64.15
0
LINE
8
0
10
93.0125
20
-50.65
11
93.0125
21
-63.65
0
LINE
8
0
10
107.0125
20
-50.65
11
107.0125
21
-63.65
0
ARC
8
0
10
93.5125
20
-50.65
40
0.5
50
90
51
180
0
ARC
8
0
10
106.5125
20
-50.65
40
0.5
50
0
51
90
0
ARC
8
0
10
93.5125
20
-63.65
40
0.5
50
180
51
270
0
ARC
8
0
10
106.5125
20
-63.65
40
0.5
50
270
51
0
0
LINE
8
0
10
117.325
20
-50.15
11
130.325
21
-50.15
0
LINE
8
0
10
117.325
20
-64.15
11
130.325
21
-64.15
0
LINE
8
0
10
116.825
20
-50.65
11
116.825
21
-63.65
0
LINE
8
0
10
130.825
20
-50.65
11
130.825
21
-63.65
0
ARC
8
0
10
117.325
20
-50.65
40
0.5
50
90
51
180
0
ARC
8
0
10
130.325
20
-50.65
40
0.5
50
0
51
90
0
ARC
8
0
10
117.325
20
-63.65
40
0.5
50
180
51
270
0
ARC
8
0
10
130.325
20
-63.65
40
0.5
50
270
51
0
0
LINE
8
0
10
136.375
20
-50.15
11
149.375
21
-50.15
0
LINE
8
0
10
136.375
20
-64.15
11
149.375
21
-64.15
0
LINE
8
0
10
135.875
20
-50.65
11
135.875
21
-63.65
0
LINE
8
0
10
149.875
20
-50.65
11
149.875
21
-63.65
0
ARC
8
0
10
136.375
20
-50.65
40
0.5
50
90
51
180
0
ARC
8
0
10
149.375
20
-50.65
40
0.5
50
0
51
90
0
ARC
8
0
10
136.375
20
-63.65
40
0.5
50
180
51
270
0
ARC
8
0
10
149.375
20
-63.65
40
0.5
50
270
51
0
0
LINE
8
0
10
155.425
20
-50.15
11
168.425
21
-50.15
0
LINE
8
0
10
155.425
20
-64.15
11
168.425
21
-64.15
0
LINE
8
0
10
154.925
20
-50.65
11
154.925
21
-63.65
0
LINE
8
0
10
168.925
20
-50.65
11
168.925
21
-63.65
0
ARC
8
0
10
155.425
20
-50.65
40
0.5
50
90
51
180
0
ARC
8
0
10
168.425
20
-50.65
40
0.5
50
0
51
90
0
ARC
8
0
10
155.425
20
-63.65
40
0.5
50
180
51
270
0
ARC
8
0
10
168.425
20
-63.65
40
0.5
50
270
51
0
0
LINE
8
0
10
174.475
20
-50.15
11
187.475
21
-50.15
0
LINE
8
0
10
174.475
20
-64.15
11
187.475
21
-64.15
0
LINE
8
0
10
173.975
20
-50.65
11
173.975
21
-63.65
0
LINE
8
0
10
187.975
20
-50.65
11
187.975
21
-63.65
0
ARC
8
0
10
174.475
20
-50.65
40
0.5
50
90
51
180
0
ARC
8
0
10
187.475
20
-50.65
40
0.5
50
0
51
90
0
ARC
8
0
10
174.475
20
-63.65
40
0.5
50
180
51
270
0
ARC
8
0
10
187.475
20
-63.65
40
0.5
50
270
51
0
0
LINE
8
0
10
193.525
20
-50.15
11
206.525
21
-50.15
0
LINE
8
0
10
193.525
20
-64.15
11
206.525
21
-64.15
0
LINE
8
0
10
193.025
20
-50.65
11
193.025
21
-63.65
0
LINE
8
0
10
207.025
20
-50.65
11
207.025
21
-63.65
0
ARC
8
0
10
193.525
20
-50.65
40
0.5
50
90
51
180
0
ARC
8
0
10
206.525
20
-50.65
40
0.5
50
0
51
90
0
ARC
8
0
10
193.525
20
-63.65
40
0.5
50
180
51
270
0
ARC
8
0
10
206.525
20
-63.65
40
0.5
50
270
51
0
0
LINE
8
0
10
212.575
20
-50.15
11
225.575
21
-50.15
0
LINE
8
0
10
212.575
20
-64.15
11
225.575
21
-64.15
0
LINE
8
0
10
212.075
20
-50.65
11
212.075
21
-63.65
0
LINE
8
0
10
226.075
20
-50.65
11
226.075
21
-63.65
0
ARC
8
0
10
212.575
20
-50.65
40
0.5
50
90
51
180
0
ARC
8
0
10
225.575
20
-50.65
40
0.5
50
0
51
90
0
ARC
8
0
10
212.575
20
-63.65
40
0.5
50
180
51
270
0
ARC
8
0
10
225.575
20
-63.65
40
0.5
50
270
51
0
0
LINE
8
0
10
231.625
20
-50.15
11
244.625
21
-50.15
0
LINE
8
0
10
231.625
20
-64.15
11
244.625
21
-64.15
0
LINE
8
0
10
231.125
20
-50.65
11
231.125
21
-63.65
0
LINE
8
0
10
245.125
20
-50.65
11
245.125
21
-63.65
0
ARC
8
0
10
231.625
20
-50.65
40
0.5
50
90
51
180
0
ARC
8
0
10
244.625
20
-50.65
40
0.5
50
0
51
90
0
ARC
8
0
10
231.625
20
-63.65
40
0.5
50
180
51
270
0
ARC
8
0
10
244.625
20
-63.65
40
0.5
50
270
51
0
0
LINE
8
0
10
250.675
20
-50.15
11
263.675
21
-50.15
0
LINE
8
0
10
250.675
20
-64.15
11
263.675
21
-64.15
0
LINE
8
0
10
250.175
20
-50.65
11
250.175
21
-63.65
0
LINE
8
0
10
264.175
20
-50.65
11
264.175
21
-63.65
0
ARC
8
0
10
250.675
20
-50.65
40
0.5
50
90
51
180
0
ARC
8
0
10
263.675
20
-50.65
40
0.5
50
0
51
90
0
ARC
8
0
10
250.675
20
-63.65
40
0.5
50
180
51
270
0
ARC
8
0
10
263.675
20
-63.65
40
0.5
50
270
51
0
0
LINE
8
0
10
269.725
20
-50.15
11
282.725
21
-50.15
0
LINE
8
0
10
269.725
20
-64.15
11
282.725
21
-64.15
0
LINE
8
0
10
269.225
20
-50.65
11
269.225
21
-63.65
0
LINE
8
0
10
283.225
20
-50.65
11
283.225
21
-63.65
0
ARC
8
0
10
269.725
20
-50.65
40
0.5
50
90
51
180
0
ARC
8
0
10
282.725
20
-50.65
40
0.5
50
0
51
90
0
ARC
8
0
10
269.725
20
-63.65
40
0.5
50
180
51
270
0
ARC
8
0
10
282.725
20
-63.65
40
0.5
50
270
51
0
0
LINE
8
0
10
288.775
20
-50.15
11
301.775
21
-50.15
0
LINE
8
0
10
288.775
20
-64.15
11
301.775
21
-64.15
0
LINE
8
0
10
288.275
20
-50.65
11
288.275
21
-63.65
0
LINE
8
0
10
302.275
20
-50.65
11
302.275
21
-63.65
0
ARC
8
0
10
288.775
20
-50.65
40
0.5
50
90
51
180
0
ARC
8
0
10
301.775
20
-50.65
40
0.5
50
0
51
90
0
ARC
8
0
10
288.775
20
-63.65
40
0.5
50
180
51
270
0
ARC
8
0
10
301.775
20
-63.65
40
0.5
50
270
51
0
0
LINE
8
0
10
307.825
20
-50.15
11
320.825
21
-50.15
0
LINE
8
0
10
307.825
20
-64.15
11
320.825
21
-64.15
0
LINE
8
0
10
307.325
20
-50.65
11
307.325
21
-63.65
0
LINE
8
0
10
321.325
20
-50.65
11
321.325
21
-63.65
0
ARC
8
0
10
307.825
20
-50.65
40
0.5
50
90
51
180
0
ARC
8
0
10
320.825
20
-50.65
40
0.5
50
0
51
90
0
ARC
8
0
10
307.825
20
-63.65
40
0.5
50
180
51
270
0
ARC
8
0
10
320.825
20
-63.65
40
0.5
50
270
51
0
0
LINE
8
0
10
326.875
20
-50.15
11
339.875
21
-50.15
0
LINE
8
0
10
326.875
20
-64.15
11
339.875
21
-64.15
0
LINE
8
0
10
326.375
20
-50.65
11
326.375
21
-63.65
0
LINE
8
0
10
340.375
20
-50.65
11
340.375
21
-63.65
0
ARC
8
0
10
326.875
20
-50.65
40
0.5
50
90
51
180
0
ARC
8
0
10
339.875
20
-50.65
40
0.5
50
0
51
90
0
ARC
8
0
10
326.875
20
-63.65
40
0.5
50
180
51
270
0
ARC
8
0
10
339.875
20
-63.65
40
0.5
50
270
51
0
0
LINE
8
0
10
366.56875
20
-60.175
11
366.56875
21
-73.175
0
LINE
8
0
10
352.56875
20
-60.175
11
352.56875
21
-73.175
0
LINE
8
0
10
366.06875
20
-59.675
11
353.06875
21
-59.675
0
LINE
8
0
10
366.06875
20
-73.675
11
353.06875
21
-73.675
0
ARC
8
0
10
366.06875
20
-60.175
40
0.5
50
0
51
90
0
ARC
8
0
10
366.06875
20
-73.175
40
0.5
50
270
51
0
0
ARC
8
0
10
353.06875
20
-60.175
40
0.5
50
90
51
180
0
ARC
8
0
10
353.06875
20
-73.175
40
0.5
50
180
51
270
0
LINE
8
0
10
365.56875
20
-51.737
11
365.56875
21
-57.737
0
LINE
8
0
10
350.56875
20
-51.737
11
350.56875
21
-57.737
0
LINE
8
0
10
365.06875
20
-51.237
11
351.06875
21
-51.237
0
LINE
8
0
10
365.06875
20
-58.237
11
351.06875
21
-58.237
0
ARC
8
0
10
365.06875
20
-51.737
40
0.5
50
0
51
90
0
ARC
8
0
10
365.06875
20
-57.737
40
0.5
50
270
51
0
0
ARC
8
0
10
351.06875
20
-51.737
40
0.5
50
90
51
180
0
ARC
8
0
10
351.06875
20
-57.737
40
0.5
50
180
51
270
0
LINE
8
0
10
365.56875
20
-75.613
11
365.56875
21
-81.613
0
LINE
8
0
10
350.56875
20
-75.613
11
350.56875
21
-81.613
0
LINE
8
0
10
365.06875
20
-75.113
11
351.06875
21
-75.113
0
LINE
8
0
10
365.06875
20
-82.113
11
351.06875
21
-82.113
0
ARC
8
0
10
365.06875
20
-75.613
40
0.5
50
0
51
90
0
ARC
8
0
10
365.06875
20
-81.613
40
0.5
50
270
51
0
0
ARC
8
0
10
351.06875
20
-75.613
40
0.5
50
90
51
180
0
ARC
8
0
10
351.06875
20
-81.613
40
0.5
50
180
51
270
0
LINE
8
0
10
379.2625
20
-50.15
11
392.2625
21
-50.15
0
LINE
8
0
10
379.2625
20
-64.15
11
392.2625
21
-64.15
0
LINE
8
0
10
378.7625
20
-50.65
11
378.7625
21
-63.65
0
LINE
8
0
10
392.7625
20
-50.65
11
392.7625
21
-63.65
0
ARC
8
0
10
379.2625
20
-50.65
40
0.5
50
90
51
180
0
ARC
8
0
10
392.2625
20
-50.65
40
0.5
50
0
51
90
0
ARC
8
0
10
379.2625
20
-63.65
40
0.5
50
180
51
270
0
ARC
8
0
10
392.2625
20
-63.65
40
0.5
50
270
51
0
0
LINE
8
0
10
398.3125
20
-50.15
11
411.3125
21
-50.15
0
LINE
8
0
10
398.3125
20
-64.15
11
411.3125
21
-64.15
0
LINE
8
0
10
397.8125
20
-50.65
11
397.8125
21
-63.65
0
LINE
8
0
10
411.8125
20
-50.65
11
411.8125
21
-63.65
0
ARC
8
0
10
398.3125
20
-50.65
40
0.5
50
90
51
180
0
ARC
8
0
10
411.3125
20
-50.65
40
0.5
50
0
51
90
0
ARC
8
0
10
398.3125
20
-63.65
40
0.5
50
180
51
270
0
ARC
8
0
10
411.3125
20
-63.65
40
0.5
50
270
51
0
0
LINE
8
0
10
417.3625
20
-50.15
11
430.3625
21
-50.15
0
LINE
8
0
10
417.3625
20
-64.15
11
430.3625
21
-64.15
0
LINE
8
0
10
416.8625
20
-50.65
11
416.8625
21
-63.65
0
LINE
8
0
10
430.8625
20
-50.65
11
430.8625
21
-63.65
0
ARC
8
0
10
417.3625
20
-50.65
40
0.5
50
90
51
180
0
ARC
8
0
10
430.3625
20
-50.65
40
0.5
50
0
51
90
0
ARC
8
0
10
417.3625
20
-63.65
40
0.5
50
180
51
270
0
ARC
8
0
10
430.3625
20
-63.65
40
0.5
50
270
51
0
0
LINE
8
0
10
441.175
20
-50.15
11
454.175
21
-50.15
0
LINE
8
0
10
441.175
20
-64.15
11
454.175
21
-64.15
0
LINE
8
0
10
440.675
20
-50.65
11
440.675
21
-63.65
0
LINE
8
0
10
454.675
20
-50.65
11
454.675
21
-63.65
0
ARC
8
0
10
441.175
20
-50.65
40
0.5
50
90
51
180
0
ARC
8
0
10
454.175
20
-50.65
40
0.5
50
0
51
90
0
ARC
8
0
10
441.175
20
-63.65
40
0.5
50
180
51
270
0
ARC
8
0
10
454.175
20
-63.65
40
0.5
50
270
51
0
0
LINE
8
0
10
460.225
20
-50.15
11
473.225
21
-50.15
0
LINE
8
0
10
460.225
20
-64.15
11
473.225
21
-64.15
0
LINE
8
0
10
459.725
20
-50.65
11
459.725
21
-63.65
0
LINE
8
0
10
473.725
20
-50.65
11
473.725
21
-63.65
0
ARC
8
0
10
460.225
20
-50.65
40
0.5
50
90
51
180
0
ARC
8
0
10
473.225
20
-50.65
40
0.5
50
0
51
90
0
ARC
8
0
10
460.225
20
-63.65
40
0.5
50
180
51
270
0
ARC
8
0
10
473.225
20
-63.65
40
0.5
50
270
51
0
0
LINE
8
0
10
479.275
20
-50.15
11
492.275
21
-50.15
0
LINE
8
0
10
479.275
20
-64.15
11
492.275
21
-64.15
0
LINE
8
0
10
478.775
20
-50.65
11
478.775
21
-63.65
0
LINE
8
0
10
492.775
20
-50.65
11
492.775
21
-63.65
0
ARC
8
0
10
479.275
20
-50.65
40
0.5
50
90
51
180
0
ARC
8
0
10
492.275
20
-50.65
40
0.5
50
0
51
90
0
ARC
8
0
10
479.275
20
-63.65
40
0.5
50
180
51
270
0
ARC
8
0
10
492.275
20
-63.65
40
0.5
50
270
51
0
0
LINE
8
0
10
511.825
20
-60.175
11
511.825
21
-73.175
0
LINE
8
0
10
497.825
20
-60.175
11
497.825
21
-73.175
0
LINE
8
0
10
511.325
20
-59.675
11
498.325
21
-59.675
0
LINE
8
0
10
511.325
20
-73.675
11
498.325
21
-73.675
0
ARC
8
0
10
511.325
20
-60.175
40
0.5
50
0
51
90
0
ARC
8
0
10
511.325
20
-73.175
40
0.5
50
270
51
0
0
ARC
8
0
10
498.325
20
-60.175
40
0.5
50
90
51
180
0
ARC
8
0
10
498.325
20
-73.175
40
0.5
50
180
51
270
0
LINE
8
0
10
510.825
20
-51.737
11
510.825
21
-57.737
0
LINE
8
0
10
495.825
20
-51.737
11
495.825
21
-57.737
0
LINE
8
0
10
510.325
20
-51.237
11
496.325
21
-51.237
0
LINE
8
0
10
510.325
20
-58.237
11
496.325
21
-58.237
0
ARC
8
0
10
510.325
20
-51.737
40
0.5
50
0
51
90
0
ARC
8
0
10
510.325
20
-57.737
40
0.5
50
270
51
0
0
ARC
8
0
10
496.325
20
-51.737
40
0.5
50
90
51
180
0
ARC
8
0
10
496.325
20
-57.737
40
0.5
50
180
51
270
0
LINE
8
0
10
510.825
20
-75.613
11
510.825
21
-81.613
0
LINE
8
0
10
495.825
20
-75.613
11
495.825
21
-81.613
0
LINE
8
0
10
510.325
20
-75.113
11
496.325
21
-75.113
0
LINE
8
0
10
510.325
20
-82.113
11
496.325
21
-82.113
0
ARC
8
0
10
510.325
20
-75.613
40
0.5
50
0
51
90
0
ARC
8
0
10
510.325
20
-81.613
40
0.5
50
270
51
0
0
ARC
8
0
10
496.325
20
-75.613
40
0.5
50
90
51
180
0
ARC
8
0
10
496.325
20
-81.613
40
0.5
50
180
51
270
0
LINE
8
0
10
3.025
20
-69.2
11
16.025
21
-69.2
0
LINE
8
0
10
3.025
20
-83.2
11
16.025
21
-83.2
0
LINE
8
0
10
2.525
20
-69.7
11
2.525
21
-82.7
0
LINE
8
0
10
16.525
20
-69.7
11
16.525
21
-82.7
0
ARC
8
0
10
3.025
20
-69.7
40
0.5
50
90
51
180
0
ARC
8
0
10
16.025
20
-69.7
40
0.5
50
0
51
90
0
ARC
8
0
10
3.025
20
-82.7
40
0.5
50
180
51
270
0
ARC
8
0
10
16.025
20
-82.7
40
0.5
50
270
51
0
0
LINE
8
0
10
22.075
20
-69.2
11
35.075
21
-69.2
0
LINE
8
0
10
22.075
20
-83.2
11
35.075
21
-83.2
0
LINE
8
0
10
21.575
20
-69.7
11
21.575
21
-82.7
0
LINE
8
0
10
35.575
20
-69.7
11
35.575
21
-82.7
0
ARC
8
0
10
22.075
20
-69.7
40
0.5
50
90
51
180
0
ARC
8
0
10
35.075
20
-69.7
40
0.5
50
0
51
90
0
ARC
8
0
10
22.075
20
-82.7
40
0.5
50
180
51
270
0
ARC
8
0
10
35.075
20
-82.7
40
0.5
50
270
51
0
0
LINE
8
0
10
41.125
20
-69.2
11
54.125
21
-69.2
0
LINE
8
0
10
41.125
20
-83.2
11
54.125
21
-83.2
0
LINE
8
0
10
40.625
20
-69.7
11
40.625
21
-82.7
0
LINE
8
0
10
54.625
20
-69.7
11
54.625
21
-82.7
0
ARC
8
0
10
41.125
20
-69.7
40
0.5
50
90
51
180
0
ARC
8
0
10
54.125
20
-69.7
40
0.5
50
0
51
90
0
ARC
8
0
10
41.125
20
-82.7
40
0.5
50
180
51
270
0
ARC
8
0
10
54.125
20
-82.7
40
0.5
50
270
51
0
0
LINE
8
0
10
60.175
20
-69.2
11
73.175
21
-69.2
0
LINE
8
0
10
60.175
20
-83.2
11
73.175
21
-83.2
0
LINE
8
0
10
59.675
20
-69.7
11
59.675
21
-82.7
0
LINE
8
0
10
73.675
20
-69.7
11
73.675
21
-82.7
0
ARC
8
0
10
60.175
20
-69.7
40
0.5
50
90
51
180
0
ARC
8
0
10
73.175
20
-69.7
40
0.5
50
0
51
90
0
ARC
8
0
10
60.175
20
-82.7
40
0.5
50
180
51
270
0
ARC
8
0
10
73.175
20
-82.7
40
0.5
50
270
51
0
0
LINE
8
0
10
95.89375
20
-69.2
11
108.89375
21
-69.2
0
LINE
8
0
10
95.89375
20
-83.2
11
108.89375
21
-83.2
0
LINE
8
0
10
95.39375
20
-69.7
11
95.39375
21
-82.7
0
LINE
8
0
10
109.39375
20
-69.7
11
109.39375
21
-82.7
0
ARC
8
0
10
95.89375
20
-69.7
40
0.5
50
90
51
180
0
ARC
8
0
10
108.89375
20
-69.7
40
0.5
50
0
51
90
0
ARC
8
0
10
95.89375
20
-82.7
40
0.5
50
180
51
270
0
ARC
8
0
10
108.89375
20
-82.7
40
0.5
50
270
51
0
0
LINE
8
0
10
122.0875
20
-69.2
11
135.0875
21
-69.2
0
LINE
8
0
10
122.0875
20
-83.2
11
135.0875
21
-83.2
0
LINE
8
0
10
121.5875
20
-69.7
11
121.5875
21
-82.7
0
LINE
8
0
10
135.5875
20
-69.7
11
135.5875
21
-82.7
0
ARC
8
0
10
122.0875
20
-69.7
40
0.5
50
90
51
180
0
ARC
8
0
10
135.0875
20
-69.7
40
0.5
50
0
51
90
0
ARC
8
0
10
122.0875
20
-82.7
40
0.5
50
180
51
270
0
ARC
8
0
10
135.0875
20
-82.7
40
0.5
50
270
51
0
0
LINE
8
0
10
141.1375
20
-69.2
11
154.1375
21
-69.2
0
LINE
8
0
10
141.1375
20
-83.2
11
154.1375
21
-83.2
0
LINE
8
0
10
140.6375
20
-69.7
11
140.6375
21
-82.7
0
LINE
8
0
10
154.6375
20
-69.7
11
154.6375
21
-82.7
0
ARC
8
0
10
141.1375
20
-69.7
40
0.5
50
90
51
180
0
ARC
8
0
10
154.1375
20
-69.7
40
0.5
50
0
51
90
0
ARC
8
0
10
141.1375
20
-82.7
40
0.5
50
180
51
270
0
ARC
8
0
10
154.1375
20
-82.7
40
0.5
50
270
51
0
0
LINE
8
0
10
160.1875
20
-69.2
11
173.1875
21
-69.2
0
LINE
8
0
10
160.1875
20
-83.2
11
173.1875
21
-83.2
0
LINE
8
0
10
159.6875
20
-69.7
11
159.6875
21
-82.7
0
LINE
8
0
10
173.6875
20
-69.7
11
173.6875
21
-82.7
0
ARC
8
0
10
160.1875
20
-69.7
40
0.5
50
90
51
180
0
ARC
8
0
10
173.1875
20
-69.7
40
0.5
50
0
51
90
0
ARC
8
0
10
160.1875
20
-82.7
40
0.5
50
180
51
270
0
ARC
8
0
10
173.1875
20
-82.7
40
0.5
50
270
51
0
0
LINE
8
0
10
179.2375
20
-69.2
11
192.2375
21
-69.2
0
LINE
8
0
10
179.2375
20
-83.2
11
192.2375
21
-83.2
0
LINE
8
0
10
178.7375
20
-69.7
11
178.7375
21
-82.7
0
LINE
8
0
10
192.7375
20
-69.7
11
192.7375
21
-82.7
0
ARC
8
0
10
179.2375
20
-69.7
40
0.5
50
90
51
180
0
ARC
8
0
10
192.2375
20
-69.7
40
0.5
50
0
51
90
0
ARC
8
0
10
179.2375
20
-82.7
40
0.5
50
180
51
270
0
ARC
8
0
10
192.2375
20
-82.7
40
0.5
50
270
51
0
0
LINE
8
0
10
198.2875
20
-69.2
11
211.2875
21
-69.2
0
LINE
8
0
10
198.2875
20
-83.2
11
211.2875
21
-83.2
0
LINE
8
0
10
197.7875
20
-69.7
11
197.7875
21
-82.7
0
LINE
8
0
10
211.7875
20
-69.7
11
211.7875
21
-82.7
0
ARC
8
0
10
198.2875
20
-69.7
40
0.5
50
90
51
180
0
ARC
8
0
10
211.2875
20
-69.7
40
0.5
50
0
51
90
0
ARC
8
0
10
198.2875
20
-82.7
40
0.5
50
180
51
270
0
ARC
8
0
10
211.2875
20
-82.7
40
0.5
50
270
51
0
0
LINE
8
0
10
217.3375
20
-69.2
11
230.3375
21
-69.2
0
LINE
8
0
10
217.3375
20
-83.2
11
230.3375
21
-83.2
0
LINE
8
0
10
216.8375
20
-69.7
11
216.8375
21
-82.7
0
LINE
8
0
10
230.8375
20
-69.7
11
230.8375
21
-82.7
0
ARC
8
0
10
217.3375
20
-69.7
40
0.5
50
90
51
180
0
ARC
8
0
10
230.3375
20
-69.7
40
0.5
50
0
51
90
0
ARC
8
0
10
217.3375
20
-82.7
40
0.5
50
180
51
270
0
ARC
8
0
10
230.3375
20
-82.7
40
0.5
50
270
51
0
0
LINE
8
0
10
236.3875
20
-69.2
11
249.3875
21
-69.2
0
LINE
8
0
10
236.3875
20
-83.2
11
249.3875
21
-83.2
0
LINE
8
0
10
235.8875
20
-69.7
11
235.8875
21
-82.7
0
LINE
8
0
10
249.8875
20
-69.7
11
249.8875
21
-82.7
0
ARC
8
0
10
236.3875
20
-69.7
40
0.5
50
90
51
180
0
ARC
8
0
10
249.3875
20
-69.7
40
0.5
50
0
51
90
0
ARC
8
0
10
236.3875
20
-82.7
40
0.5
50
180
51
270
0
ARC
8
0
10
249.3875
20
-82.7
40
0.5
50
270
51
0
0
LINE
8
0
10
255.4375
20
-69.2
11
268.4375
21
-69.2
0
LINE
8
0
10
255.4375
20
-83.2
11
268.4375
21
-83.2
0
LINE
8
0
10
254.9375
20
-69.7
11
254.9375
21
-82.7
0
LINE
8
0
10
268.9375
20
-69.7
11
268.9375
21
-82.7
0
ARC
8
0
10
255.4375
20
-69.7
40
0.5
50
90
51
180
0
ARC
8
0
10
268.4375
20
-69.7
40
0.5
50
0
51
90
0
ARC
8
0
10
255.4375
20
-82.7
40
0.5
50
180
51
270
0
ARC
8
0
10
268.4375
20
-82.7
40
0.5
50
270
51
0
0
LINE
8
0
10
274.4875
20
-69.2
11
287.4875
21
-69.2
0
LINE
8
0
10
274.4875
20
-83.2
11
287.4875
21
-83.2
0
LINE
8
0
10
273.9875
20
-69.7
11
273.9875
21
-82.7
0
LINE
8
0
10
287.9875
20
-69.7
11
287.9875
21
-82.7
0
ARC
8
0
10
274.4875
20
-69.7
40
0.5
50
90
51
180
0
ARC
8
0
10
287.4875
20
-69.7
40
0.5
50
0
51
90
0
ARC
8
0
10
274.4875
20
-82.7
40
0.5
50
180
51
270
0
ARC
8
0
10
287.4875
20
-82.7
40
0.5
50
270
51
0
0
LINE
8
0
10
293.5375
20
-69.2
11
306.5375
21
-69.2
0
LINE
8
0
10
293.5375
20
-83.2
11
306.5375
21
-83.2
0
LINE
8
0
10
293.0375
20
-69.7
11
293.0375
21
-82.7
0
LINE
8
0
10
307.0375
20
-69.7
11
307.0375
21
-82.7
0
ARC
8
0
10
293.5375
20
-69.7
40
0.5
50
90
51
180
0
ARC
8
0
10
306.5375
20
-69.7
40
0.5
50
0
51
90
0
ARC
8
0
10
293.5375
20
-82.7
40
0.5
50
180
51
270
0
ARC
8
0
10
306.5375
20
-82.7
40
0.5
50
270
51
0
0
LINE
8
0
10
312.5875
20
-69.2
11
325.5875
21
-69.2
0
LINE
8
0
10
312.5875
20
-83.2
11
325.5875
21
-83.2
0
LINE
8
0
10
312.0875
20
-69.7
11
312.0875
21
-82.7
0
LINE
8
0
10
326.0875
20
-69.7
11
326.0875
21
-82.7
0
ARC
8
0
10
312.5875
20
-69.7
40
0.5
50
90
51
180
0
ARC
8
0
10
325.5875
20
-69.7
40
0.5
50
0
51
90
0
ARC
8
0
10
312.5875
20
-82.7
40
0.5
50
180
51
270
0
ARC
8
0
10
325.5875
20
-82.7
40
0.5
50
270
51
0
0
LINE
8
0
10
331.6375
20
-69.2
11
344.6375
21
-69.2
0
LINE
8
0
10
331.6375
20
-83.2
11
344.6375
21
-83.2
0
LINE
8
0
10
331.1375
20
-69.7
11
331.1375
21
-82.7
0
LINE
8
0
10
345.1375
20
-69.7
11
345.1375
21
-82.7
0
ARC
8
0
10
331.6375
20
-69.7
40
0.5
50
90
51
180
0
ARC
8
0
10
344.6375
20
-69.7
40
0.5
50
0
51
90
0
ARC
8
0
10
331.6375
20
-82.7
40
0.5
50
180
51
270
0
ARC
8
0
10
344.6375
20
-82.7
40
0.5
50
270
51
0
0
LINE
8
0
10
441.175
20
-69.2
11
454.175
21
-69.2
0
LINE
8
0
10
441.175
20
-83.2
11
454.175
21
-83.2
0
LINE
8
0
10
440.675
20
-69.7
11
440.675
21
-82.7
0
LINE
8
0
10
454.675
20
-69.7
11
454.675
21
-82.7
0
ARC
8
0
10
441.175
20
-69.7
40
0.5
50
90
51
180
0
ARC
8
0
10
454.175
20
-69.7
40
0.5
50
0
51
90
0
ARC
8
0
10
441.175
20
-82.7
40
0.5
50
180
51
270
0
ARC
8
0
10
454.175
20
-82.7
40
0.5
50
270
51
0
0
LINE
8
0
10
460.225
20
-69.2
11
473.225
21
-69.2
0
LINE
8
0
10
460.225
20
-83.2
11
473.225
21
-83.2
0
LINE
8
0
10
459.725
20
-69.7
11
459.725
21
-82.7
0
LINE
8
0
10
473.725
20
-69.7
11
473.725
21
-82.7
0
ARC
8
0
10
460.225
20
-69.7
40
0.5
50
90
51
180
0
ARC
8
0
10
473.225
20
-69.7
40
0.5
50
0
51
90
0
ARC
8
0
10
460.225
20
-82.7
40
0.5
50
180
51
270
0
ARC
8
0
10
473.225
20
-82.7
40
0.5
50
270
51
0
0
LINE
8
0
10
479.275
20
-69.2
11
492.275
21
-69.2
0
LINE
8
0
10
479.275
20
-83.2
11
492.275
21
-83.2
0
LINE
8
0
10
478.775
20
-69.7
11
478.775
21
-82.7
0
LINE
8
0
10
492.775
20
-69.7
11
492.775
21
-82.7
0
ARC
8
0
10
479.275
20
-69.7
40
0.5
50
90
51
180
0
ARC
8
0
10
492.275
20
-69.7
40
0.5
50
0
51
90
0
ARC
8
0
10
479.275
20
-82.7
40
0.5
50
180
51
270
0
ARC
8
0
10
492.275
20
-82.7
40
0.5
50
270
51
0
0
LINE
8
0
10
3.025
20
-88.25
11
16.025
21
-88.25
0
LINE
8
0
10
3.025
20
-102.25
11
16.025
21
-102.25
0
LINE
8
0
10
2.525
20
-88.75
11
2.525
21
-101.75
0
LINE
8
0
10
16.525
20
-88.75
11
16.525
21
-101.75
0
ARC
8
0
10
3.025
20
-88.75
40
0.5
50
90
51
180
0
ARC
8
0
10
16.025
20
-88.75
40
0.5
50
0
51
90
0
ARC
8
0
10
3.025
20
-101.75
40
0.5
50
180
51
270
0
ARC
8
0
10
16.025
20
-101.75
40
0.5
50
270
51
0
0
LINE
8
0
10
22.075
20
-88.25
11
35.075
21
-88.25
0
LINE
8
0
10
22.075
20
-102.25
11
35.075
21
-102.25
0
LINE
8
0
10
21.575
20
-88.75
11
21.575
21
-101.75
0
LINE
8
0
10
35.575
20
-88.75
11
35.575
21
-101.75
0
ARC
8
0
10
22.075
20
-88.75
40
0.5
50
90
51
180
0
ARC
8
0
10
35.075
20
-88.75
40
0.5
50
0
51
90
0
ARC
8
0
10
22.075
20
-101.75
40
0.5
50
180
51
270
0
ARC
8
0
10
35.075
20
-101.75
40
0.5
50
270
51
0
0
LINE
8
0
10
41.125
20
-88.25
11
54.125
21
-88.25
0
LINE
8
0
10
41.125
20
-102.25
11
54.125
21
-102.25
0
LINE
8
0
10
40.625
20
-88.75
11
40.625
21
-101.75
0
LINE
8
0
10
54.625
20
-88.75
11
54.625
21
-101.75
0
ARC
8
0
10
41.125
20
-88.75
40
0.5
50
90
51
180
0
ARC
8
0
10
54.125
20
-88.75
40
0.5
50
0
51
90
0
ARC
8
0
10
41.125
20
-101.75
40
0.5
50
180
51
270
0
ARC
8
0
10
54.125
20
-101.75
40
0.5
50
270
51
0
0
LINE
8
0
10
60.175
20
-88.25
11
73.175
21
-88.25
0
LINE
8
0
10
60.175
20
-102.25
11
73.175
21
-102.25
0
LINE
8
0
10
59.675
20
-88.75
11
59.675
21
-101.75
0
LINE
8
0
10
73.675
20
-88.75
11
73.675
21
-101.75
0
ARC
8
0
10
60.175
20
-88.75
40
0.5
50
90
51
180
0
ARC
8
0
10
73.175
20
-88.75
40
0.5
50
0
51
90
0
ARC
8
0
10
60.175
20
-101.75
40
0.5
50
180
51
270
0
ARC
8
0
10
73.175
20
-101.75
40
0.5
50
270
51
0
0
LINE
8
0
10
91.13125
20
-88.25
11
104.13125
21
-88.25
0
LINE
8
0
10
91.13125
20
-102.25
11
104.13125
21
-102.25
0
LINE
8
0
10
90.63125
20
-88.75
11
90.63125
21
-101.75
0
LINE
8
0
10
104.63125
20
-88.75
11
104.63125
21
-101.75
0
ARC
8
0
10
91.13125
20
-88.75
40
0.5
50
90
51
180
0
ARC
8
0
10
104.13125
20
-88.75
40
0.5
50
0
51
90
0
ARC
8
0
10
91.13125
20
-101.75
40
0.5
50
180
51
270
0
ARC
8
0
10
104.13125
20
-101.75
40
0.5
50
270
51
0
0
LINE
8
0
10
112.5625
20
-88.25
11
125.5625
21
-88.25
0
LINE
8
0
10
112.5625
20
-102.25
11
125.5625
21
-102.25
0
LINE
8
0
10
112.0625
20
-88.75
11
112.0625
21
-101.75
0
LINE
8
0
10
126.0625
20
-88.75
11
126.0625
21
-101.75
0
ARC
8
0
10
112.5625
20
-88.75
40
0.5
50
90
51
180
0
ARC
8
0
10
125.5625
20
-88.75
40
0.5
50
0
51
90
0
ARC
8
0
10
112.5625
20
-101.75
40
0.5
50
180
51
270
0
ARC
8
0
10
125.5625
20
-101.75
40
0.5
50
270
51
0
0
LINE
8
0
10
131.6125
20
-88.25
11
144.6125
21
-88.25
0
LINE
8
0
10
131.6125
20
-102.25
11
144.6125
21
-102.25
0
LINE
8
0
10
131.1125
20
-88.75
11
131.1125
21
-101.75
0
LINE
8
0
10
145.1125
20
-88.75
11
145.1125
21
-101.75
0
ARC
8
0
10
131.6125
20
-88.75
40
0.5
50
90
51
180
0
ARC
8
0
10
144.6125
20
-88.75
40
0.5
50
0
51
90
0
ARC
8
0
10
131.6125
20
-101.75
40
0.5
50
180
51
270
0
ARC
8
0
10
144.6125
20
-101.75
40
0.5
50
270
51
0
0
LINE
8
0
10
150.6625
20
-88.25
11
163.6625
21
-88.25
0
LINE
8
0
10
150.6625
20
-102.25
11
163.6625
21
-102.25
0
LINE
8
0
10
150.1625
20
-88.75
11
150.1625
21
-101.75
0
LINE
8
0
10
164.1625
20
-88.75
11
164.1625
21
-101.75
0
ARC
8
0
10
150.6625
20
-88.75
40
0.5
50
90
51
180
0
ARC
8
0
10
163.6625
20
-88.75
40
0.5
50
0
51
90
0
ARC
8
0
10
150.6625
20
-101.75
40
0.5
50
180
51
270
0
ARC
8
0
10
163.6625
20
-101.75
40
0.5
50
270
51
0
0
LINE
8
0
10
169.7125
20
-88.25
11
182.7125
21
-88.25
0
LINE
8
0
10
169.7125
20
-102.25
11
182.7125
21
-102.25
0
LINE
8
0
10
169.2125
20
-88.75
11
169.2125
21
-101.75
0
LINE
8
0
10
183.2125
20
-88.75
11
183.2125
21
-101.75
0
ARC
8
0
10
169.7125
20
-88.75
40
0.5
50
90
51
180
0
ARC
8
0
10
182.7125
20
-88.75
40
0.5
50
0
51
90
0
ARC
8
0
10
169.7125
20
-101.75
40
0.5
50
180
51
270
0
ARC
8
0
10
182.7125
20
-101.75
40
0.5
50
270
51
0
0
LINE
8
0
10
188.7625
20
-88.25
11
201.7625
21
-88.25
0
LINE
8
0
10
188.7625
20
-102.25
11
201.7625
21
-102.25
0
LINE
8
0
10
188.2625
20
-88.75
11
188.2625
21
-101.75
0
LINE
8
0
10
202.2625
20
-88.75
11
202.2625
21
-101.75
0
ARC
8
0
10
188.7625
20
-88.75
40
0.5
50
90
51
180
0
ARC
8
0
10
201.7625
20
-88.75
40
0.5
50
0
51
90
0
ARC
8
0
10
188.7625
20
-101.75
40
0.5
50
180
51
270
0
ARC
8
0
10
201.7625
20
-101.75
40
0.5
50
270
51
0
0
LINE
8
0
10
207.8125
20
-88.25
11
220.8125
21
-88.25
0
LINE
8
0
10
207.8125
20
-102.25
11
220.8125
21
-102.25
0
LINE
8
0
10
207.3125
20
-88.75
11
207.3125
21
-101.75
0
LINE
8
0
10
221.3125
20
-88.75
11
221.3125
21
-101.75
0
ARC
8
0
10
207.8125
20
-88.75
40
0.5
50
90
51
180
0
ARC
8
0
10
220.8125
20
-88.75
40
0.5
50
0
51
90
0
ARC
8
0
10
207.8125
20
-101.75
40
0.5
50
180
51
270
0
ARC
8
0
10
220.8125
20
-101.75
40
0.5
50
270
51
0
0
LINE
8
0
10
226.8625
20
-88.25
11
239.8625
21
-88.25
0
LINE
8
0
10
226.8625
20
-102.25
11
239.8625
21
-102.25
0
LINE
8
0
10
226.3625
20
-88.75
11
226.3625
21
-101.75
0
LINE
8
0
10
240.3625
20
-88.75
11
240.3625
21
-101.75
0
ARC
8
0
10
226.8625
20
-88.75
40
0.5
50
90
51
180
0
ARC
8
0
10
239.8625
20
-88.75
40
0.5
50
0
51
90
0
ARC
8
0
10
226.8625
20
-101.75
40
0.5
50
180
51
270
0
ARC
8
0
10
239.8625
20
-101.75
40
0.5
50
270
51
0
0
LINE
8
0
10
245.9125
20
-88.25
11
258.9125
21
-88.25
0
LINE
8
0
10
245.9125
20
-102.25
11
258.9125
21
-102.25
0
LINE
8
0
10
245.4125
20
-88.75
11
245.4125
21
-101.75
0
LINE
8
0
10
259.4125
20
-88.75
11
259.4125
21
-101.75
0
ARC
8
0
10
245.9125
20
-88.75
40
0.5
50
90
51
180
0
ARC
8
0
10
258.9125
20
-88.75
40
0.5
50
0
51
90
0
ARC
8
0
10
245.9125
20
-101.75
40
0.5
50
180
51
270
0
ARC
8
0
10
258.9125
20
-101.75
40
0.5
50
270
51
0
0
LINE
8
0
10
264.9625
20
-88.25
11
277.9625
21
-88.25
0
LINE
8
0
10
264.9625
20
-102.25
11
277.9625
21
-102.25
0
LINE
8
0
10
264.4625
20
-88.75
11
264.4625
21
-101.75
0
LINE
8
0
10
278.4625
20
-88.75
11
278.4625
21
-101.75
0
ARC
8
0
10
264.9625
20
-88.75
40
0.5
50
90
51
180
0
ARC
8
0
10
277.9625
20
-88.75
40
0.5
50
0
51
90
0
ARC
8
0
10
264.9625
20
-101.75
40
0.5
50
180
51
270
0
ARC
8
0
10
277.9625
20
-101.75
40
0.5
50
270
51
0
0
LINE
8
0
10
284.0125
20
-88.25
11
297.0125
21
-88.25
0
LINE
8
0
10
284.0125
20
-102.25
11
297.0125
21
-102.25
0
LINE
8
0
10
283.5125
20
-88.75
11
283.5125
21
-101.75
0
LINE
8
0
10
297.5125
20
-88.75
11
297.5125
21
-101.75
0
ARC
8
0
10
284.0125
20
-88.75
40
0.5
50
90
51
180
0
ARC
8
0
10
297.0125
20
-88.75
40
0.5
50
0
51
90
0
ARC
8
0
10
284.0125
20
-101.75
40
0.5
50
180
51
270
0
ARC
8
0
10
297.0125
20
-101.75
40
0.5
50
270
51
0
0
LINE
8
0
10
303.0625
20
-88.25
11
316.0625
21
-88.25
0
LINE
8
0
10
303.0625
20
-102.25
11
316.0625
21
-102.25
0
LINE
8
0
10
302.5625
20
-88.75
11
302.5625
21
-101.75
0
LINE
8
0
10
316.5625
20
-88.75
11
316.5625
21
-101.75
0
ARC
8
0
10
303.0625
20
-88.75
40
0.5
50
90
51
180
0
ARC
8
0
10
316.0625
20
-88.75
40
0.5
50
0
51
90
0
ARC
8
0
10
303.0625
20
-101.75
40
0.5
50
180
51
270
0
ARC
8
0
10
316.0625
20
-101.75
40
0.5
50
270
51
0
0
LINE
8
0
10
338.78125
20
-88.25
11
351.78125
21
-88.25
0
LINE
8
0
10
338.78125
20
-102.25
11
351.78125
21
-102.25
0
LINE
8
0
10
338.28125
20
-88.75
11
338.28125
21
-101.75
0
LINE
8
0
10
352.28125
20
-88.75
11
352.28125
21
-101.75
0
ARC
8
0
10
338.78125
20
-88.75
40
0.5
50
90
51
180
0
ARC
8
0
10
351.78125
20
-88.75
40
0.5
50
0
51
90
0
ARC
8
0
10
338.78125
20
-101.75
40
0.5
50
180
51
270
0
ARC
8
0
10
351.78125
20
-101.75
40
0.5
50
270
51
0
0
LINE
8
0
10
330.34325
20
-89.25
11
336.34325
21
-89.25
0
LINE
8
0
10
330.34325
20
-104.25
11
336.34325
21
-104.25
0
LINE
8
0
10
329.84325
20
-89.75
11
329.84325
21
-103.75
0
LINE
8
0
10
336.84325
20
-89.75
11
336.84325
21
-103.75
0
ARC
8
0
10
330.34325
20
-89.75
40
0.5
50
90
51
180
0
ARC
8
0
10
336.34325
20
-89.75
40
0.5
50
0
51
90
0
ARC
8
0
10
330.34325
20
-103.75
40
0.5
50
180
51
270
0
ARC
8
0
10
336.34325
20
-103.75
40
0.5
50
270
51
0
0
LINE
8
0
10
354.21925
20
-89.25
11
360.21925
21
-89.25
0
LINE
8
0
10
354.21925
20
-104.25
11
360.21925
21
-104.25
0
LINE
8
0
10
353.71925
20
-89.75
11
353.71925
21
-103.75
0
LINE
8
0
10
360.71925
20
-89.75
11
360.71925
21
-103.75
0
ARC
8
0
10
354.21925
20
-89.75
40
0.5
50
90
51
180
0
ARC
8
0
10
360.21925
20
-89.75
40
0.5
50
0
51
90
0
ARC
8
0
10
354.21925
20
-103.75
40
0.5
50
180
51
270
0
ARC
8
0
10
360.21925
20
-103.75
40
0.5
50
270
51
0
0
LINE
8
0
10
398.3125
20
-88.25
11
411.3125
21
-88.25
0
LINE
8
0
10
398.3125
20
-102.25
11
411.3125
21
-102.25
0
LINE
8
0
10
397.8125
20
-88.75
11
397.8125
21
-101.75
0
LINE
8
0
10
411.8125
20
-88.75
11
411.8125
21
-101.75
0
ARC
8
0
10
398.3125
20
-88.75
40
0.5
50
90
51
180
0
ARC
8
0
10
411.3125
20
-88.75
40
0.5
50
0
51
90
0
ARC
8
0
10
398.3125
20
-101.75
40
0.5
50
180
51
270
0
ARC
8
0
10
411.3125
20
-101.75
40
0.5
50
270
51
0
0
LINE
8
0
10
441.175
20
-88.25
11
454.175
21
-88.25
0
LINE
8
0
10
441.175
20
-102.25
11
454.175
21
-102.25
0
LINE
8
0
10
440.675
20
-88.75
11
440.675
21
-101.75
0
LINE
8
0
10
454.675
20
-88.75
11
454.675
21
-101.75
0
ARC
8
0
10
441.175
20
-88.75
40
0.5
50
90
51
180
0
ARC
8
0
10
454.175
20
-88.75
40
0.5
50
0
51
90
0
ARC
8
0
10
441.175
20
-101.75
40
0.5
50
180
51
270
0
ARC
8
0
10
454.175
20
-101.75
40
0.5
50
270
51
0
0
LINE
8
0
10
460.225
20
-88.25
11
473.225
21
-88.25
0
LINE
8
0
10
460.225
20
-102.25
11
473.225
21
-102.25
0
LINE
8
0
10
459.725
20
-88.75
11
459.725
21
-101.75
0
LINE
8
0
10
473.725
20
-88.75
11
473.725
21
-101.75
0
ARC
8
0
10
460.225
20
-88.75
40
0.5
50
90
51
180
0
ARC
8
0
10
473.225
20
-88.75
40
0.5
50
0
51
90
0
ARC
8
0
10
460.225
20
-101.75
40
0.5
50
180
51
270
0
ARC
8
0
10
473.225
20
-101.75
40
0.5
50
270
51
0
0
LINE
8
0
10
479.275
20
-88.25
11
492.275
21
-88.25
0
LINE
8
0
10
479.275
20
-102.25
11
492.275
21
-102.25
0
LINE
8
0
10
478.775
20
-88.75
11
478.775
21
-101.75
0
LINE
8
0
10
492.775
20
-88.75
11
492.775
21
-101.75
0
ARC
8
0
10
479.275
20
-88.75
40
0.5
50
90
51
180
0
ARC
8
0
10
492.275
20
-88.75
40
0.5
50
0
51
90
0
ARC
8
0
10
479.275
20
-101.75
40
0.5
50
180
51
270
0
ARC
8
0
10
492.275
20
-101.75
40
0.5
50
270
51
0
0
LINE
8
0
10
511.825
20
-98.275
11
511.825
21
-111.275
0
LINE
8
0
10
497.825
20
-98.275
11
497.825
21
-111.275
0
LINE
8
0
10
511.325
20
-97.775
11
498.325
21
-97.775
0
LINE
8
0
10
511.325
20
-111.775
11
498.325
21
-111.775
0
ARC
8
0
10
511.325
20
-98.275
40
0.5
50
0
51
90
0
ARC
8
0
10
511.325
20
-111.275
40
0.5
50
270
51
0
0
ARC
8
0
10
498.325
20
-98.275
40
0.5
50
90
51
180
0
ARC
8
0
10
498.325
20
-111.275
40
0.5
50
180
51
270
0
LINE
8
0
10
510.825
20
-89.837
11
510.825
21
-95.837
0
LINE
8
0
10
495.825
20
-89.837
11
495.825
21
-95.837
0
LINE
8
0
10
510.325
20
-89.337
11
496.325
21
-89.337
0
LINE
8
0
10
510.325
20
-96.337
11
496.325
21
-96.337
0
ARC
8
0
10
510.325
20
-89.837
40
0.5
50
0
51
90
0
ARC
8
0
10
510.325
20
-95.837
40
0.5
50
270
51
0
0
ARC
8
0
10
496.325
20
-89.837
40
0.5
50
90
51
180
0
ARC
8
0
10
496.325
20
-95.837
40
0.5
50
180
51
270
0
LINE
8
0
10
510.825
20
-113.713
11
510.825
21
-119.713
0
LINE
8
0
10
495.825
20
-113.713
11
495.825
21
-119.713
0
LINE
8
0
10
510.325
20
-113.213
11
496.325
21
-113.213
0
LINE
8
0
10
510.325
20
-120.213
11
496.325
21
-120.213
0
ARC
8
0
10
510.325
20
-113.713
40
0.5
50
0
51
90
0
ARC
8
0
10
510.325
20
-119.713
40
0.5
50
270
51
0
0
ARC
8
0
10
496.325
20
-113.713
40
0.5
50
90
51
180
0
ARC
8
0
10
496.325
20
-119.713
40
0.5
50
180
51
270
0
LINE
8
0
10
3.025
20
-107.3
11
16.025
21
-107.3
0
LINE
8
0
10
3.025
20
-121.3
11
16.025
21
-121.3
0
LINE
8
0
10
2.525
20
-107.8
11
2.525
21
-120.8
0
LINE
8
0
10
16.525
20
-107.8
11
16.525
21
-120.8
0
ARC
8
0
10
3.025
20
-107.8
40
0.5
50
90
51
180
0
ARC
8
0
10
16.025
20
-107.8
40
0.5
50
0
51
90
0
ARC
8
0
10
3.025
20
-120.8
40
0.5
50
180
51
270
0
ARC
8
0
10
16.025
20
-120.8
40
0.5
50
270
51
0
0
LINE
8
0
10
22.075
20
-107.3
11
35.075
21
-107.3
0
LINE
8
0
10
22.075
20
-121.3
11
35.075
21
-121.3
0
LINE
8
0
10
21.575
20
-107.8
11
21.575
21
-120.8
0
LINE
8
0
10
35.575
20
-107.8
11
35.575
21
-120.8
0
ARC
8
0
10
22.075
20
-107.8
40
0.5
50
90
51
180
0
ARC
8
0
10
35.075
20
-107.8
40
0.5
50
0
51
90
0
ARC
8
0
10
22.075
20
-120.8
40
0.5
50
180
51
270
0
ARC
8
0
10
35.075
20
-120.8
40
0.5
50
270
51
0
0
LINE
8
0
10
41.125
20
-107.3
11
54.125
21
-107.3
0
LINE
8
0
10
41.125
20
-121.3
11
54.125
21
-121.3
0
LINE
8
0
10
40.625
20
-107.8
11
40.625
21
-120.8
0
LINE
8
0
10
54.625
20
-107.8
11
54.625
21
-120.8
0
ARC
8
0
10
41.125
20
-107.8
40
0.5
50
90
51
180
0
ARC
8
0
10
54.125
20
-107.8
40
0.5
50
0
51
90
0
ARC
8
0
10
41.125
20
-120.8
40
0.5
50
180
51
270
0
ARC
8
0
10
54.125
20
-120.8
40
0.5
50
270
51
0
0
LINE
8
0
10
60.175
20
-107.3
11
73.175
21
-107.3
0
LINE
8
0
10
60.175
20
-121.3
11
73.175
21
-121.3
0
LINE
8
0
10
59.675
20
-107.8
11
59.675
21
-120.8
0
LINE
8
0
10
73.675
20
-107.8
11
73.675
21
-120.8
0
ARC
8
0
10
60.175
20
-107.8
40
0.5
50
90
51
180
0
ARC
8
0
10
73.175
20
-107.8
40
0.5
50
0
51
90
0
ARC
8
0
10
60.175
20
-120.8
40
0.5
50
180
51
270
0
ARC
8
0
10
73.175
20
-120.8
40
0.5
50
270
51
0
0
LINE
8
0
10
91.13125
20
-107.3
11
104.13125
21
-107.3
0
LINE
8
0
10
91.13125
20
-121.3
11
104.13125
21
-121.3
0
LINE
8
0
10
90.63125
20
-107.8
11
90.63125
21
-120.8
0
LINE
8
0
10
104.63125
20
-107.8
11
104.63125
21
-120.8
0
ARC
8
0
10
91.13125
20
-107.8
40
0.5
50
90
51
180
0
ARC
8
0
10
104.13125
20
-107.8
40
0.5
50
0
51
90
0
ARC
8
0
10
91.13125
20
-120.8
40
0.5
50
180
51
270
0
ARC
8
0
10
104.13125
20
-120.8
40
0.5
50
270
51
0
0
LINE
8
0
10
114.94375
20
-107.3
11
127.94375
21
-107.3
0
LINE
8
0
10
114.94375
20
-121.3
11
127.94375
21
-121.3
0
LINE
8
0
10
114.44375
20
-107.8
11
114.44375
21
-120.8
0
LINE
8
0
10
128.44375
20
-107.8
11
128.44375
21
-120.8
0
ARC
8
0
10
114.94375
20
-107.8
40
0.5
50
90
51
180
0
ARC
8
0
10
127.94375
20
-107.8
40
0.5
50
0
51
90
0
ARC
8
0
10
114.94375
20
-120.8
40
0.5
50
180
51
270
0
ARC
8
0
10
127.94375
20
-120.8
40
0.5
50
270
51
0
0
LINE
8
0
10
138.75625
20
-107.3
11
151.75625
21
-107.3
0
LINE
8
0
10
138.75625
20
-121.3
11
151.75625
21
-121.3
0
LINE
8
0
10
138.25625
20
-107.8
11
138.25625
21
-120.8
0
LINE
8
0
10
152.25625
20
-107.8
11
152.25625
21
-120.8
0
ARC
8
0
10
138.75625
20
-107.8
40
0.5
50
90
51
180
0
ARC
8
0
10
151.75625
20
-107.8
40
0.5
50
0
51
90
0
ARC
8
0
10
138.75625
20
-120.8
40
0.5
50
180
51
270
0
ARC
8
0
10
151.75625
20
-120.8
40
0.5
50
270
51
0
0
LINE
8
0
10
210.19375
20
-107.3
11
223.19375
21
-107.3
0
LINE
8
0
10
210.19375
20
-121.3
11
223.19375
21
-121.3
0
LINE
8
0
10
209.69375
20
-107.8
11
209.69375
21
-120.8
0
LINE
8
0
10
223.69375
20
-107.8
11
223.69375
21
-120.8
0
ARC
8
0
10
210.19375
20
-107.8
40
0.5
50
90
51
180
0
ARC
8
0
10
223.19375
20
-107.8
40
0.5
50
0
51
90
0
ARC
8
0
10
210.19375
20
-120.8
40
0.5
50
180
51
270
0
ARC
8
0
10
223.19375
20
-120.8
40
0.5
50
270
51
0
0
LINE
8
0
10
163.69375
20
-108.3
11
169.69375
21
-108.3
0
LINE
8
0
10
163.69375
20
-123.3
11
169.69375
21
-123.3
0
LINE
8
0
10
163.19375
20
-108.8
11
163.19375
21
-122.8
0
LINE
8
0
10
170.19375
20
-108.8
11
170.19375
21
-122.8
0
ARC
8
0
10
163.69375
20
-108.8
40
0.5
50
90
51
180
0
ARC
8
0
10
169.69375
20
-108.8
40
0.5
50
0
51
90
0
ARC
8
0
10
163.69375
20
-122.8
40
0.5
50
180
51
270
0
ARC
8
0
10
169.69375
20
-122.8
40
0.5
50
270
51
0
0
LINE
8
0
10
263.69375
20
-108.3
11
269.69375
21
-108.3
0
LINE
8
0
10
263.69375
20
-123.3
11
269.69375
21
-123.3
0
LINE
8
0
10
263.19375
20
-108.8
11
263.19375
21
-122.8
0
LINE
8
0
10
270.19375
20
-108.8
11
270.19375
21
-122.8
0
ARC
8
0
10
263.69375
20
-108.8
40
0.5
50
90
51
180
0
ARC
8
0
10
269.69375
20
-108.8
40
0.5
50
0
51
90
0
ARC
8
0
10
263.69375
20
-122.8
40
0.5
50
180
51
270
0
ARC
8
0
10
269.69375
20
-122.8
40
0.5
50
270
51
0
0
LINE
8
0
10
281.63125
20
-107.3
11
294.63125
21
-107.3
0
LINE
8
0
10
281.63125
20
-121.3
11
294.63125
21
-121.3
0
LINE
8
0
10
281.13125
20
-107.8
11
281.13125
21
-120.8
0
LINE
8
0
10
295.13125
20
-107.8
11
295.13125
21
-120.8
0
ARC
8
0
10
281.63125
20
-107.8
40
0.5
50
90
51
180
0
ARC
8
0
10
294.63125
20
-107.8
40
0.5
50
0
51
90
0
ARC
8
0
10
281.63125
20
-120.8
40
0.5
50
180
51
270
0
ARC
8
0
10
294.63125
20
-120.8
40
0.5
50
270
51
0
0
LINE
8
0
10
305.44375
20
-107.3
11
318.44375
21
-107.3
0
LINE
8
0
10
305.44375
20
-121.3
11
318.44375
21
-121.3
0
LINE
8
0
10
304.94375
20
-107.8
11
304.94375
21
-120.8
0
LINE
8
0
10
318.94375
20
-107.8
11
318.94375
21
-120.8
0
ARC
8
0
10
305.44375
20
-107.8
40
0.5
50
90
51
180
0
ARC
8
0
10
318.44375
20
-107.8
40
0.5
50
0
51
90
0
ARC
8
0
10
305.44375
20
-120.8
40
0.5
50
180
51
270
0
ARC
8
0
10
318.44375
20
-120.8
40
0.5
50
270
51
0
0
LINE
8
0
10
329.25625
20
-107.3
11
342.25625
21
-107.3
0
LINE
8
0
10
329.25625
20
-121.3
11
342.25625
21
-121.3
0
LINE
8
0
10
328.75625
20
-107.8
11
328.75625
21
-120.8
0
LINE
8
0
10
342.75625
20
-107.8
11
342.75625
21
-120.8
0
ARC
8
0
10
329.25625
20
-107.8
40
0.5
50
90
51
180
0
ARC
8
0
10
342.25625
20
-107.8
40
0.5
50
0
51
90
0
ARC
8
0
10
329.25625
20
-120.8
40
0.5
50
180
51
270
0
ARC
8
0
10
342.25625
20
-120.8
40
0.5
50
270
51
0
0
LINE
8
0
10
353.06875
20
-107.3
11
366.06875
21
-107.3
0
LINE
8
0
10
353.06875
20
-121.3
11
366.06875
21
-121.3
0
LINE
8
0
10
352.56875
20
-107.8
11
352.56875
21
-120.8
0
LINE
8
0
10
366.56875
20
-107.8
11
366.56875
21
-120.8
0
ARC
8
0
10
353.06875
20
-107.8
40
0.5
50
90
51
180
0
ARC
8
0
10
366.06875
20
-107.8
40
0.5
50
0
51
90
0
ARC
8
0
10
353.06875
20
-120.8
40
0.5
50
180
51
270
0
ARC
8
0
10
366.06875
20
-120.8
40
0.5
50
270
51
0
0
LINE
8
0
10
379.2625
20
-107.3
11
392.2625
21
-107.3
0
LINE
8
0
10
379.2625
20
-121.3
11
392.2625
21
-121.3
0
LINE
8
0
10
378.7625
20
-107.8
11
378.7625
21
-120.8
0
LINE
8
0
10
392.7625
20
-107.8
11
392.7625
21
-120.8
0
ARC
8
0
10
379.2625
20
-107.8
40
0.5
50
90
51
180
0
ARC
8
0
10
392.2625
20
-107.8
40
0.5
50
0
51
90
0
ARC
8
0
10
379.2625
20
-120.8
40
0.5
50
180
51
270
0
ARC
8
0
10
392.2625
20
-120.8
40
0.5
50
270
51
0
0
LINE
8
0
10
398.3125
20
-107.3
11
411.3125
21
-107.3
0
LINE
8
0
10
398.3125
20
-121.3
11
411.3125
21
-121.3
0
LINE
8
0
10
397.8125
20
-107.8
11
397.8125
21
-120.8
0
LINE
8
0
10
411.8125
20
-107.8
11
411.8125
21
-120.8
0
ARC
8
0
10
398.3125
20
-107.8
40
0.5
50
90
51
180
0
ARC
8
0
10
411.3125
20
-107.8
40
0.5
50
0
51
90
0
ARC
8
0
10
398.3125
20
-120.8
40
0.5
50
180
51
270
0
ARC
8
0
10
411.3125
20
-120.8
40
0.5
50
270
51
0
0
LINE
8
0
10
417.3625
20
-107.3
11
430.3625
21
-107.3
0
LINE
8
0
10
417.3625
20
-121.3
11
430.3625
21
-121.3
0
LINE
8
0
10
416.8625
20
-107.8
11
416.8625
21
-120.8
0
LINE
8
0
10
430.8625
20
-107.8
11
430.8625
21
-120.8
0
ARC
8
0
10
417.3625
20
-107.8
40
0.5
50
90
51
180
0
ARC
8
0
10
430.3625
20
-107.8
40
0.5
50
0
51
90
0
ARC
8
0
10
417.3625
20
-120.8
40
0.5
50
180
51
270
0
ARC
8
0
10
430.3625
20
-120.8
40
0.5
50
270
51
0
0
LINE
8
0
10
450.7
20
-107.3
11
463.7
21
-107.3
0
LINE
8
0
10
450.7
20
-121.3
11
463.7
21
-121.3
0
LINE
8
0
10
450.2
20
-107.8
11
450.2
21
-120.8
0
LINE
8
0
10
464.2
20
-107.8
11
464.2
21
-120.8
0
ARC
8
0
10
450.7
20
-107.8
40
0.5
50
90
51
180
0
ARC
8
0
10
463.7
20
-107.8
40
0.5
50
0
51
90
0
ARC
8
0
10
450.7
20
-120.8
40
0.5
50
180
51
270
0
ARC
8
0
10
463.7
20
-120.8
40
0.5
50
270
51
0
0
LINE
8
0
10
442.262
20
-108.3
11
448.262
21
-108.3
0
LINE
8
0
10
442.262
20
-123.3
11
448.262
21
-123.3
0
LINE
8
0
10
441.762
20
-108.8
11
441.762
21
-122.8
0
LINE
8
0
10
448.762
20
-108.8
11
448.762
21
-122.8
0
ARC
8
0
10
442.262
20
-108.8
40
0.5
50
90
51
180
0
ARC
8
0
10
448.262
20
-108.8
40
0.5
50
0
51
90
0
ARC
8
0
10
442.262
20
-122.8
40
0.5
50
180
51
270
0
ARC
8
0
10
448.262
20
-122.8
40
0.5
50
270
51
0
0
LINE
8
0
10
466.138
20
-108.3
11
472.138
21
-108.3
0
LINE
8
0
10
466.138
20
-123.3
11
472.138
21
-123.3
0
LINE
8
0
10
465.638
20
-108.8
11
465.638
21
-122.8
0
LINE
8
0
10
472.638
20
-108.8
11
472.638
21
-122.8
0
ARC
8
0
10
466.138
20
-108.8
40
0.5
50
90
51
180
0
ARC
8
0
10
472.138
20
-108.8
40
0.5
50
0
51
90
0
ARC
8
0
10
466.138
20
-122.8
40
0.5
50
180
51
270
0
ARC
8
0
10
472.138
20
-122.8
40
0.5
50
270
51
0
0
LINE
8
0
10
479.275
20
-107.3
11
492.275
21
-107.3
0
LINE
8
0
10
479.275
20
-121.3
11
492.275
21
-121.3
0
LINE
8
0
10
478.775
20
-107.8
11
478.775
21
-120.8
0
LINE
8
0
10
492.775
20
-107.8
11
492.775
21
-120.8
0
ARC
8
0
10
479.275
20
-107.8
40
0.5
50
90
51
180
0
ARC
8
0
10
492.275
20
-107.8
40
0.5
50
0
51
90
0
ARC
8
0
10
479.275
20
-120.8
40
0.5
50
180
51
270
0
ARC
8
0
10
492.275
20
-120.8
40
0.5
50
270
51
0
0
LINE
8
0
10
0
20
-123.825
11
514.35
21
-123.825
0
LINE
8
0
10
0
20
0
11
514.35
21
0
0
LINE
8
0
10
0
20
-123.825
11
0
21
0
0
LINE
8
0
10
514.35
20
-123.825
11
514.35
21
0
0
ENDSEC
0
EOF